<?xml version="1.0" standalone="no"?>
<!DOCTYPE svg PUBLIC "-//W3C//DTD SVG 20010904//EN"
 "http://www.w3.org/TR/2001/REC-SVG-20010904/DTD/svg10.dtd">
<svg version="1.0" xmlns="http://www.w3.org/2000/svg"
 width="300.000000pt" height="300.000000pt" viewBox="0 0 300.000000 300.000000"
 preserveAspectRatio="xMidYMid meet">

<g transform="translate(0.000000,300.000000) scale(0.100000,-0.100000)"
fill="#000000" stroke="none">
<path d="M10 2430 l0 -370 80 0 80 0 0 285 0 285 480 0 480 0 0 85 0 85 -560
0 -560 0 0 -370z"/>
<path d="M1872 2718 l3 -83 478 -3 477 -2 0 -285 0 -285 85 0 85 0 0 370 0
370 -565 0 -566 0 3 -82z"/>
<path d="M1130 1500 l0 -560 370 0 370 0 0 75 0 75 -285 0 -285 0 0 485 0 485
-85 0 -85 0 0 -560z"/>
<path d="M10 570 l0 -370 560 0 560 0 0 85 0 85 -480 0 -480 0 0 285 0 285
-80 0 -80 0 0 -370z"/>
<path d="M2830 655 l0 -285 -477 -2 -478 -3 -3 -82 -3 -83 566 0 565 0 0 370
0 370 -85 0 -85 0 0 -285z"/>
</g>
</svg>
